<svg width="458" height="418" viewBox="0 0 458 418" fill="none" xmlns="http://www.w3.org/2000/svg">
<path d="M30.6016 0.683594C14.2109 0.683594 0.839844 14.0508 0.839844 30.4453V89.9688H457.191V70.1289C457.191 53.7344 443.82 40.3633 427.43 40.3633L160.035 40.4414C157.246 39.4336 151.512 30.2891 148.449 25.4062C140.855 13.2773 132.949 0.683594 119.891 0.683594H30.6016ZM10.7617 109.809C5.29687 109.809 0.839844 114.266 0.839844 119.73V387.586C0.839844 403.98 14.2109 417.348 30.6016 417.348H427.43C443.82 417.348 457.191 403.98 457.191 387.586V119.73C457.191 114.266 452.734 109.809 447.27 109.809H10.7617ZM229.016 149.492C234.52 149.492 238.938 153.949 238.938 159.414V284.273L271.605 251.605C275.48 247.73 281.758 247.73 285.633 251.605C289.508 255.48 289.508 261.758 285.633 265.633L236.031 315.238C234.094 317.176 231.574 318.145 229.016 318.145C226.457 318.145 223.938 317.176 222 315.238L172.398 265.633C168.523 261.758 168.523 255.48 172.398 251.605C176.273 247.73 182.551 247.73 186.426 251.605L219.094 284.273V159.414C219.094 153.949 223.512 149.492 229.016 149.492ZM129.809 337.984H328.223C333.727 337.984 338.145 342.441 338.145 347.906C338.145 353.367 333.727 357.824 328.223 357.824H129.809C124.309 357.824 119.891 353.367 119.891 347.906C119.891 342.441 124.309 337.984 129.809 337.984Z" fill="white"/>
</svg>
