<?xml version="1.0" encoding="UTF-8"?>
<!DOCTYPE svg PUBLIC "-//W3C//DTD SVG 1.1//EN" "http://www.w3.org/Graphics/SVG/1.1/DTD/svg11.dtd">
<!-- Creator: CorelDRAW X7 -->
<svg xmlns="http://www.w3.org/2000/svg" xml:space="preserve" width="210mm" height="297mm" version="1.1" style="shape-rendering:geometricPrecision; text-rendering:geometricPrecision; image-rendering:optimizeQuality; fill-rule:evenodd; clip-rule:evenodd"
viewBox="0 0 21000 29700"
 xmlns:xlink="http://www.w3.org/1999/xlink">
 <defs>
  <style type="text/css">
   <![CDATA[
    .str0 {stroke:black;stroke-width:100}
    .fil2 {fill:#FEFEFE}
    .fil1 {fill:#D61F40}
    .fil0 {fill:#FEFEFE}
   ]]>
  </style>
 </defs>
 <g id="Layer_x0020_1">
  <metadata id="CorelCorpID_0Corel-Layer"/>
  <polygon class="fil0 str0" points="10329,12250 19882,12250 19920,12251 19954,12254 19988,12258 20021,12263 20054,12271 20086,12279 20117,12289 20148,12301 20178,12314 20207,12328 20235,12344 20263,12361 20290,12379 20315,12398 20340,12419 20364,12440 20386,12463 20408,12486 20428,12511 20447,12536 20464,12562 20481,12589 20495,12617 20509,12645 20521,12674 20531,12704 20540,12734 20547,12765 20553,12796 20557,12828 20560,12860 20560,12896 20535,15710 20534,15746 20531,15779 20527,15811 20520,15843 20513,15874 20503,15905 20493,15935 20481,15964 20467,15993 20452,16021 20435,16048 20418,16074 20399,16100 20379,16124 20357,16148 20335,16170 20311,16192 20287,16212 20261,16232 20235,16250 20208,16267 20179,16282 20151,16296 20121,16309 20091,16321 20060,16331 20028,16340 19996,16347 19963,16352 19929,16356 19895,16359 19857,16360 10301,16360 10317,16345 10348,16314 10377,16282 10405,16248 10431,16213 10455,16177 10478,16139 10498,16101 10517,16061 10534,16021 10549,15979 10562,15937 10572,15894 10581,15850 10587,15806 10591,15760 10593,15715 10618,12895 10617,12849 10613,12804 10608,12760 10600,12716 10590,12673 10577,12631 10562,12589 10546,12549 10527,12509 10506,12471 10484,12433 10460,12397 10433,12362 10406,12328 10376,12296 10345,12265 "/>
  <polygon class="fil1 str0" points="1446,12250 10379,12250 10416,12251 10450,12254 10483,12258 10515,12263 10547,12271 10578,12279 10609,12289 10639,12301 10668,12314 10697,12328 10725,12344 10752,12361 10778,12379 10803,12398 10827,12419 10850,12440 10872,12463 10893,12486 10913,12511 10931,12536 10949,12562 10965,12589 10979,12617 10992,12645 11004,12674 11014,12704 11023,12734 11030,12765 11036,12796 11040,12828 11042,12860 11043,12896 11018,15710 11017,15746 11014,15779 11010,15811 11004,15843 10996,15874 10987,15905 10976,15935 10965,15964 10951,15993 10936,16021 10920,16048 10903,16074 10885,16100 10865,16124 10844,16148 10822,16170 10799,16192 10775,16212 10750,16232 10724,16250 10697,16267 10670,16282 10642,16296 10613,16309 10583,16321 10553,16331 10522,16340 10490,16347 10458,16352 10425,16356 10392,16359 10355,16360 1421,16360 1384,16359 1351,16356 1318,16352 1286,16347 1254,16339 1222,16331 1192,16321 1162,16309 1132,16296 1104,16282 1076,16266 1049,16249 1023,16231 998,16212 973,16191 950,16170 928,16147 907,16124 888,16099 869,16074 852,16048 836,16021 822,15993 808,15965 797,15936 786,15906 778,15876 771,15845 765,15814 761,15782 759,15750 758,15714 782,12900 784,12864 787,12831 791,12799 797,12767 805,12736 814,12705 824,12675 836,12646 849,12617 864,12589 880,12562 898,12536 916,12510 936,12486 957,12462 979,12439 1002,12418 1026,12398 1051,12378 1076,12360 1103,12344 1131,12328 1159,12314 1188,12301 1218,12289 1248,12279 1279,12270 1311,12263 1343,12258 1376,12254 1409,12251 "/>
  <path class="fil0" d="M4086 14036c0,220 -105,378 -316,475 -164,71 -362,106 -593,106l-1342 0 0 641c0,68 -28,111 -84,129 -15,8 -71,12 -167,12 -90,0 -135,-47 -135,-141l0 -1909c0,-94 45,-140 136,-140l1610 0c218,0 404,31 556,93 224,87 335,218 335,394l0 340zm-383 -13l0 -298c0,-127 -168,-191 -505,-191l-1363 0 0 756 1365 0c336,0 503,-89 503,-267zm3531 4c0,198 -101,343 -303,434 -160,67 -345,100 -553,100l-637 0 1291 567c69,31 103,77 103,138 0,90 -76,135 -228,135 -61,0 -108,-5 -143,-14l-1763 -779 0 650c0,94 -45,141 -136,141 -96,0 -152,-4 -167,-12 -56,-18 -83,-61 -83,-129l0 -1909c0,-94 45,-140 135,-140l1556 0c242,0 440,32 596,97 221,92 332,245 332,457l0 264zm-386 4l0 -277c0,-147 -182,-220 -543,-220l-1304 0 0 702 1373 0c316,0 474,-68 474,-205zm3453 780c0,393 -328,588 -984,588l-602 0c-266,0 -475,-34 -629,-104 -234,-98 -351,-259 -351,-482l0 -1011c0,-396 326,-593 980,-593l602 0c305,0 521,27 646,83 225,89 338,260 338,510l0 1009zm-388 -9l0 -991c0,-185 -196,-277 -587,-277l-613 0c-395,0 -592,92 -592,277l0 991c0,179 197,268 592,268l615 0c390,0 585,-89 585,-268z"/>
  <path class="fil1" d="M14309 15166c0,166 -70,250 -210,250 -64,0 -136,-36 -218,-106l-1780 -1585 0 1534c0,71 -27,116 -82,133 -16,3 -38,5 -66,7 -27,1 -60,2 -99,2 -89,0 -134,-47 -134,-142l0 -1827c0,-159 65,-238 196,-238 83,0 167,38 254,115l1756 1567 0 -1525c0,-70 28,-114 83,-132 16,-2 37,-4 65,-6 27,-2 60,-3 99,-3 91,0 136,47 136,141l0 1815zm2911 -860c0,116 -48,174 -143,174l-1834 0 0 360c0,154 163,232 489,232l1345 0c89,0 134,47 134,142 0,124 -45,187 -134,187l-1362 0c-199,0 -382,-37 -548,-112 -204,-97 -306,-242 -306,-435l0 -1086c0,-105 34,-199 102,-284 146,-183 408,-274 784,-274l372 0c88,0 133,62 133,184 0,94 -45,142 -133,142l-55 0 -34 0 -19 0c-12,0 -19,-1 -20,-2 -29,-1 -54,-2 -74,-3 -21,0 -38,-1 -52,-1 -417,0 -626,79 -626,238l0 383 1840 0c94,0 141,51 141,155zm2770 -912c0,94 -44,142 -134,142l-846 0 0 1723c0,95 -44,142 -131,142 -90,0 -145,-4 -167,-10 -54,-17 -81,-61 -81,-132l0 -1723 -839 0c-90,0 -135,-48 -135,-142 0,-65 7,-109 20,-133 18,-34 57,-51 115,-51l2064 0c90,0 134,62 134,184z"/>
  <path class="fil2" d="M1296 17684c0,-35 -6,-65 -17,-92 -11,-28 -27,-51 -48,-70 -21,-19 -45,-34 -74,-45 -28,-10 -60,-15 -94,-15l-281 0 0 755 80 0 0 -311 201 0c34,0 66,-5 94,-15 29,-11 53,-26 74,-45 21,-20 37,-43 48,-70 11,-28 17,-58 17,-92zm-81 0c0,33 -7,61 -20,83 -14,22 -32,39 -56,50 -24,12 -52,17 -84,17l-193 0 0 -300 193 0c32,0 60,6 84,17 24,11 42,27 56,50 13,22 20,49 20,83zm779 533l-179 -343c32,-6 61,-19 86,-36 24,-18 44,-41 57,-69 14,-28 21,-60 21,-97 0,-33 -6,-62 -16,-88 -11,-26 -26,-48 -46,-66 -20,-18 -44,-32 -71,-42 -27,-9 -58,-14 -91,-14l-289 0 0 755 80 0 0 -335 182 0 172 335 94 0zm-95 -544c-1,31 -7,56 -20,77 -13,20 -30,35 -53,46 -22,10 -49,15 -78,15l-202 0 0 -277 202 0c29,0 56,5 78,16 23,10 40,25 53,46 13,21 19,46 20,77zm778 166c0,-39 0,-74 -1,-105 -1,-30 -3,-57 -8,-81 -4,-23 -11,-45 -21,-64 -10,-19 -23,-37 -41,-55 -25,-26 -54,-45 -87,-58 -33,-14 -68,-20 -106,-20 -38,-1 -73,6 -106,20 -32,13 -61,32 -87,58 -17,18 -31,36 -41,55 -10,19 -17,41 -21,64 -4,24 -7,51 -8,81 -1,31 -1,66 -1,106 0,39 0,74 1,105 1,30 4,57 8,81 4,23 11,45 21,64 10,19 24,38 41,55 26,26 55,45 87,58 33,14 68,20 106,20 38,0 73,-6 106,-20 33,-13 62,-32 87,-58 18,-18 31,-36 41,-55 10,-19 17,-41 21,-64 5,-24 7,-51 8,-81 1,-31 1,-66 1,-106zm-80 0c0,40 -1,73 -2,101 -1,27 -4,50 -7,69 -4,19 -9,36 -16,50 -7,14 -17,26 -28,38 -17,17 -37,31 -59,40 -23,9 -47,14 -72,14 -25,0 -49,-5 -71,-14 -23,-9 -43,-23 -59,-40 -12,-12 -22,-24 -29,-38 -7,-14 -12,-31 -16,-50 -3,-19 -6,-42 -7,-69 -1,-28 -2,-61 -1,-100 -1,-40 0,-73 1,-101 1,-27 4,-50 7,-69 4,-19 9,-36 16,-50 7,-13 17,-26 29,-38 16,-17 36,-31 59,-40 22,-9 46,-14 71,-14 25,0 49,5 72,14 22,9 42,23 59,40 11,12 21,25 28,38 7,14 12,31 16,50 3,19 6,42 7,69 1,28 2,61 2,100zm755 -305l0 -72 -469 0 0 755 81 0 0 -333 331 0 0 -72 -331 0 0 -278 388 0zm631 683l0 -72 -388 0 0 -273 331 0 0 -72 -331 0 0 -266 388 0 0 -72 -469 0 0 755 469 0zm639 -208c0,-31 -6,-60 -17,-85 -10,-25 -26,-47 -47,-64 -10,-9 -22,-17 -34,-24 -12,-7 -27,-12 -43,-17 -17,-5 -37,-9 -61,-12l-83 -13c-13,-2 -26,-5 -38,-9 -13,-4 -24,-9 -35,-14 -11,-6 -20,-12 -28,-18 -12,-11 -20,-23 -26,-38 -6,-14 -8,-31 -8,-49 0,-29 6,-53 19,-74 12,-21 30,-37 54,-49 23,-11 52,-17 86,-17 26,0 50,2 71,7 20,5 39,12 56,22 17,9 33,21 49,35l52 -52c-22,-19 -43,-35 -66,-47 -22,-12 -46,-21 -72,-27 -26,-6 -55,-8 -87,-8 -50,0 -93,9 -129,26 -36,18 -64,43 -83,75 -20,31 -30,69 -30,112 0,30 5,57 14,80 10,24 24,44 43,61 17,14 37,26 60,36 23,9 50,16 79,21l88 14c19,2 34,5 45,8 12,3 22,7 30,11 8,4 16,10 24,17 12,11 21,24 27,40 6,16 9,35 9,54 0,30 -7,55 -22,76 -14,21 -34,37 -61,48 -26,11 -58,16 -95,16 -28,0 -54,-2 -77,-7 -23,-5 -46,-14 -67,-26 -20,-12 -41,-29 -62,-49l-55 55c23,24 48,43 74,57 25,15 53,26 83,32 30,7 64,10 102,10 39,0 75,-4 107,-14 32,-10 59,-24 82,-43 23,-18 41,-41 53,-67 12,-27 18,-57 19,-90zm622 0c0,-31 -5,-60 -16,-85 -11,-25 -27,-47 -47,-64 -11,-9 -22,-17 -34,-24 -13,-7 -27,-12 -44,-17 -16,-5 -37,-9 -60,-12l-83 -13c-13,-2 -26,-5 -39,-9 -12,-4 -24,-9 -35,-14 -10,-6 -20,-12 -28,-18 -11,-11 -20,-23 -25,-38 -6,-14 -9,-31 -9,-49 1,-29 7,-53 19,-74 13,-21 31,-37 54,-49 24,-11 53,-17 87,-17 26,0 49,2 70,7 21,5 40,12 57,22 17,9 33,21 49,35l52 -52c-22,-19 -44,-35 -66,-47 -22,-12 -47,-21 -72,-27 -26,-6 -55,-8 -87,-8 -50,0 -94,9 -130,26 -36,18 -63,43 -83,75 -19,31 -29,69 -29,112 0,30 5,57 14,80 10,24 24,44 43,61 17,14 36,26 60,36 23,9 49,16 79,21l88 14c18,2 33,5 45,8 12,3 21,7 30,11 8,4 16,10 24,17 12,11 21,24 27,40 6,16 9,35 9,54 0,30 -8,55 -22,76 -14,21 -35,37 -61,48 -27,11 -58,16 -95,16 -29,0 -54,-2 -78,-7 -23,-5 -45,-14 -66,-26 -21,-12 -41,-29 -62,-49l-55 55c23,24 48,43 73,57 26,15 53,26 84,32 30,7 64,10 102,10 39,0 75,-4 106,-14 32,-10 60,-24 83,-43 23,-18 41,-41 53,-67 12,-27 18,-57 18,-90zm266 208l0 -755 -81 0 0 755 81 0zm734 -378c0,-39 0,-74 -1,-105 -1,-30 -4,-57 -8,-81 -4,-23 -11,-45 -21,-64 -10,-19 -24,-37 -41,-55 -26,-26 -55,-45 -88,-58 -32,-14 -68,-20 -105,-20 -38,-1 -73,6 -106,20 -33,13 -62,32 -87,58 -18,18 -32,36 -41,55 -10,19 -17,41 -22,64 -4,24 -6,51 -7,81 -1,31 -2,66 -1,106 -1,39 0,74 1,105 1,30 3,57 7,81 5,23 12,45 22,64 9,19 23,38 41,55 25,26 54,45 87,58 33,14 68,20 106,20 37,0 73,-6 105,-20 33,-13 62,-32 88,-58 17,-18 31,-36 41,-55 10,-19 17,-41 21,-64 4,-24 7,-51 8,-81 1,-31 1,-66 1,-106zm-81 0c0,40 0,73 -1,101 -2,27 -4,50 -7,69 -4,19 -9,36 -16,50 -7,14 -17,26 -29,38 -17,17 -36,31 -59,40 -22,9 -46,14 -71,14 -25,0 -49,-5 -72,-14 -22,-9 -42,-23 -59,-40 -12,-12 -21,-24 -28,-38 -7,-14 -13,-31 -16,-50 -4,-19 -6,-42 -7,-69 -2,-28 -2,-61 -2,-100 0,-40 0,-73 2,-101 1,-27 3,-50 7,-69 3,-19 9,-36 16,-50 7,-13 16,-26 28,-38 17,-17 37,-31 59,-40 23,-9 47,-14 72,-14 25,0 49,5 71,14 23,9 42,23 59,40 12,12 22,25 29,38 7,14 12,31 16,50 3,19 5,42 7,69 1,28 1,61 1,100zm845 378l0 -755 -81 0 0 603 -401 -603 -76 0 0 755 80 0 0 -606 401 606 77 0zm760 0l-277 -755 -68 0 -277 755 85 0 61 -171 330 0 60 171 86 0zm-169 -241l-283 0 142 -399 141 399zm774 241l0 -72 -386 0 0 -683 -81 0 0 755 467 0zm940 -209c-1,-30 -6,-57 -16,-80 -11,-24 -25,-44 -43,-61 -19,-16 -40,-29 -64,-38 21,-8 40,-20 57,-36 17,-15 30,-34 39,-57 10,-22 15,-46 15,-73 0,-31 -5,-59 -16,-84 -11,-25 -26,-46 -46,-64 -20,-17 -43,-30 -70,-39 -28,-10 -58,-14 -91,-14l-284 0 0 755 294 0c33,0 64,-4 91,-13 28,-9 52,-22 71,-40 20,-18 36,-39 46,-65 11,-26 16,-57 17,-91zm-81 -2c0,29 -6,53 -18,74 -13,20 -30,37 -53,48 -22,11 -49,17 -81,17l-205 0 0 -277 205 0c32,0 59,6 81,17 23,11 40,27 53,47 12,21 18,46 18,74zm-12 -341c0,30 -6,54 -19,74 -13,19 -31,34 -53,43 -22,9 -48,14 -76,14l-197 0 0 -262 197 0c28,0 54,4 76,14 22,9 40,23 53,43 13,19 19,43 19,74zm815 303l0 -506 -81 0 0 499c0,39 -8,72 -22,101 -16,28 -37,50 -64,66 -28,15 -60,23 -97,23 -37,0 -69,-8 -96,-23 -28,-16 -49,-38 -64,-66 -15,-29 -22,-62 -22,-101l0 -499 -81 0 0 506c0,38 7,72 20,103 12,31 31,58 54,81 24,23 51,40 83,53 32,12 68,18 106,18 38,0 74,-6 106,-18 32,-13 60,-30 83,-53 24,-23 42,-49 55,-81 13,-31 20,-65 20,-103zm679 41c0,-31 -6,-60 -16,-85 -11,-25 -27,-47 -48,-64 -10,-9 -21,-17 -34,-24 -12,-7 -27,-12 -43,-17 -17,-5 -37,-9 -61,-12l-82 -13c-14,-2 -26,-5 -39,-9 -13,-4 -24,-9 -35,-14 -11,-6 -20,-12 -28,-18 -12,-11 -20,-23 -26,-38 -5,-14 -8,-31 -8,-49 0,-29 6,-53 19,-74 12,-21 30,-37 54,-49 24,-11 52,-17 86,-17 26,0 50,2 71,7 20,5 39,12 57,22 17,9 33,21 48,35l52 -52c-21,-19 -43,-35 -65,-47 -23,-12 -47,-21 -73,-27 -26,-6 -55,-8 -87,-8 -50,0 -93,9 -129,26 -36,18 -64,43 -83,75 -20,31 -29,69 -30,112 0,30 5,57 15,80 9,24 24,44 43,61 16,14 36,26 59,36 23,9 50,16 80,21l88 14c18,2 33,5 44,8 12,3 22,7 30,11 8,4 17,10 24,17 13,11 22,24 28,40 6,16 8,35 8,54 0,30 -7,55 -21,76 -14,21 -35,37 -62,48 -26,11 -58,16 -95,16 -28,0 -54,-2 -77,-7 -23,-5 -45,-14 -66,-26 -21,-12 -42,-29 -63,-49l-55 55c24,24 48,43 74,57 25,15 53,26 83,32 30,7 64,10 102,10 39,0 75,-4 107,-14 32,-10 59,-24 82,-43 23,-18 41,-41 53,-67 13,-27 19,-57 19,-90zm265 208l0 -755 -80 0 0 755 80 0zm793 0l0 -755 -81 0 0 603 -401 -603 -76 0 0 755 80 0 0 -606 401 606 77 0zm703 0l0 -72 -388 0 0 -273 331 0 0 -72 -331 0 0 -266 388 0 0 -72 -469 0 0 755 469 0zm639 -208c0,-31 -6,-60 -17,-85 -10,-25 -26,-47 -47,-64 -10,-9 -22,-17 -34,-24 -12,-7 -27,-12 -44,-17 -16,-5 -36,-9 -60,-12l-83 -13c-13,-2 -26,-5 -38,-9 -13,-4 -25,-9 -35,-14 -11,-6 -20,-12 -28,-18 -12,-11 -21,-23 -26,-38 -6,-14 -8,-31 -8,-49 0,-29 6,-53 19,-74 12,-21 30,-37 54,-49 23,-11 52,-17 86,-17 26,0 50,2 70,7 21,5 40,12 57,22 17,9 33,21 49,35l52 -52c-22,-19 -43,-35 -66,-47 -22,-12 -46,-21 -72,-27 -26,-6 -55,-8 -87,-8 -50,0 -93,9 -129,26 -36,18 -64,43 -83,75 -20,31 -30,69 -30,112 0,30 5,57 14,80 10,24 24,44 43,61 17,14 37,26 60,36 23,9 50,16 79,21l88 14c19,2 33,5 45,8 12,3 22,7 30,11 8,4 16,10 24,17 12,11 21,24 27,40 6,16 9,35 9,54 0,30 -7,55 -22,76 -14,21 -34,37 -61,48 -26,11 -58,16 -95,16 -28,0 -54,-2 -77,-7 -24,-5 -46,-14 -67,-26 -21,-12 -41,-29 -62,-49l-55 55c23,24 48,43 74,57 25,15 53,26 83,32 30,7 64,10 102,10 39,0 75,-4 107,-14 32,-10 59,-24 82,-43 23,-18 41,-41 53,-67 12,-27 18,-57 19,-90zm622 0c0,-31 -5,-60 -16,-85 -11,-25 -27,-47 -47,-64 -11,-9 -22,-17 -34,-24 -13,-7 -27,-12 -44,-17 -17,-5 -37,-9 -60,-12l-83 -13c-13,-2 -26,-5 -39,-9 -12,-4 -24,-9 -35,-14 -11,-6 -20,-12 -28,-18 -11,-11 -20,-23 -26,-38 -5,-14 -8,-31 -8,-49 0,-29 7,-53 19,-74 13,-21 31,-37 54,-49 24,-11 53,-17 86,-17 27,0 50,2 71,7 21,5 40,12 57,22 17,9 33,21 48,35l53 -52c-22,-19 -44,-35 -66,-47 -23,-12 -47,-21 -73,-27 -25,-6 -54,-8 -86,-8 -50,0 -94,9 -130,26 -36,18 -63,43 -83,75 -19,31 -29,69 -29,112 0,30 5,57 14,80 10,24 24,44 43,61 17,14 36,26 60,36 23,9 49,16 79,21l88 14c18,2 33,5 45,8 11,3 21,7 29,11 9,4 17,10 25,17 12,11 21,24 27,40 6,16 9,35 9,54 0,30 -8,55 -22,76 -14,21 -35,37 -61,48 -27,11 -59,16 -95,16 -29,0 -54,-2 -78,-7 -23,-5 -45,-14 -66,-26 -21,-12 -42,-29 -62,-49l-55 55c23,24 48,43 73,57 26,15 53,26 84,32 30,7 64,10 101,10 40,0 76,-4 107,-14 32,-10 60,-24 83,-43 23,-18 40,-41 53,-67 12,-27 18,-57 18,-90zm947 -10l-81 0c-7,31 -19,58 -35,80 -16,23 -37,41 -62,53 -25,13 -53,19 -84,19 -26,0 -50,-4 -72,-13 -23,-9 -42,-23 -59,-40 -12,-12 -21,-25 -28,-38 -8,-14 -13,-31 -16,-50 -4,-19 -6,-43 -7,-70 -2,-28 -2,-61 -2,-100 0,-40 0,-73 2,-101 1,-27 3,-51 7,-70 3,-19 8,-36 16,-50 7,-13 16,-26 28,-38 17,-17 36,-30 59,-39 22,-10 46,-14 72,-14 31,0 59,6 83,19 25,12 45,30 61,53 16,23 28,49 35,80l83 0c-9,-47 -26,-88 -50,-121 -23,-33 -54,-59 -90,-77 -36,-17 -77,-26 -122,-26 -38,-1 -73,6 -106,20 -33,13 -62,32 -87,58 -18,18 -32,36 -41,55 -10,19 -17,41 -22,64 -4,24 -6,51 -7,81 -1,31 -2,66 -2,106 0,39 1,74 2,105 1,30 3,57 7,81 5,23 12,45 22,64 9,19 23,38 41,55 25,26 54,45 87,58 33,14 68,20 106,20 45,0 85,-8 122,-26 36,-18 67,-44 91,-77 24,-33 40,-74 49,-121zm693 -160c0,-39 0,-74 -1,-105 -1,-30 -3,-57 -8,-81 -4,-23 -11,-45 -21,-64 -10,-19 -23,-37 -41,-55 -25,-26 -54,-45 -87,-58 -33,-14 -68,-20 -106,-20 -38,-1 -73,6 -106,20 -32,13 -61,32 -87,58 -17,18 -31,36 -41,55 -10,19 -17,41 -21,64 -4,24 -7,51 -8,81 -1,31 -1,66 -1,106 0,39 0,74 1,105 1,30 4,57 8,81 4,23 11,45 21,64 10,19 24,38 41,55 26,26 55,45 87,58 33,14 68,20 106,20 38,0 73,-6 106,-20 33,-13 62,-32 87,-58 18,-18 31,-36 41,-55 10,-19 17,-41 21,-64 5,-24 7,-51 8,-81 1,-31 1,-66 1,-106zm-80 0c0,40 -1,73 -2,101 -1,27 -3,50 -7,69 -4,19 -9,36 -16,50 -7,14 -16,26 -28,38 -17,17 -37,31 -59,40 -23,9 -47,14 -72,14 -25,0 -49,-5 -71,-14 -23,-9 -42,-23 -59,-40 -12,-12 -22,-24 -29,-38 -7,-14 -12,-31 -16,-50 -3,-19 -6,-42 -7,-69 -1,-28 -1,-61 -1,-100 0,-40 0,-73 1,-101 1,-27 4,-50 7,-69 4,-19 9,-36 16,-50 7,-13 17,-26 29,-38 17,-17 36,-31 59,-40 22,-9 46,-14 71,-14 25,0 49,5 72,14 22,9 42,23 59,40 12,12 21,25 28,38 7,14 12,31 16,50 4,19 6,42 7,69 1,28 2,61 2,100zm844 378l0 -755 -81 0 0 603 -401 -603 -76 0 0 755 81 0 0 -606 401 606 76 0zm793 0l0 -755 -81 0 0 603 -401 -603 -76 0 0 755 80 0 0 -606 401 606 77 0zm703 0l0 -72 -388 0 0 -273 331 0 0 -72 -331 0 0 -266 388 0 0 -72 -469 0 0 755 469 0z"/>
  <path class="fil2" d="M18317 17999l-81 0c-7,31 -18,58 -35,80 -16,23 -37,41 -62,53 -24,13 -52,19 -84,19 -25,0 -49,-4 -72,-13 -22,-9 -42,-23 -59,-40 -11,-12 -21,-25 -28,-38 -7,-14 -12,-31 -16,-50 -3,-19 -6,-43 -7,-70 -1,-28 -2,-61 -2,-100 0,-40 1,-73 2,-101 1,-27 4,-51 7,-70 4,-19 9,-36 16,-50 7,-13 17,-26 28,-38 17,-17 37,-30 59,-39 23,-10 47,-14 72,-14 31,0 59,6 84,19 24,12 45,30 61,53 16,23 27,49 34,80l83 0c-9,-47 -25,-88 -49,-121 -24,-33 -54,-59 -90,-77 -37,-17 -78,-26 -123,-26 -37,-1 -73,6 -105,20 -33,13 -63,32 -88,58 -18,18 -31,36 -41,55 -10,19 -17,41 -21,64 -5,24 -7,51 -8,81 -1,31 -1,66 -1,106 0,39 0,74 1,105 1,30 3,57 8,81 4,23 11,45 21,64 10,19 23,38 41,55 25,26 55,45 88,58 32,14 68,20 105,20 45,0 86,-8 122,-26 37,-18 67,-44 91,-77 24,-33 40,-74 49,-121zm613 -465l0 -72 -518 0 0 72 219 0 0 683 81 0 0 -683 218 0zm238 683l0 -755 -81 0 0 755 81 0zm734 -378c0,-39 0,-74 -1,-105 -1,-30 -4,-57 -8,-81 -4,-23 -11,-45 -21,-64 -10,-19 -24,-37 -41,-55 -26,-26 -55,-45 -88,-58 -32,-14 -67,-20 -105,-20 -38,-1 -73,6 -106,20 -33,13 -62,32 -87,58 -18,18 -32,36 -41,55 -10,19 -17,41 -22,64 -4,24 -6,51 -7,81 -1,31 -2,66 -1,106 -1,39 0,74 1,105 1,30 3,57 7,81 5,23 12,45 22,64 9,19 23,38 41,55 25,26 54,45 87,58 33,14 68,20 106,20 38,0 73,-6 105,-20 33,-13 62,-32 88,-58 17,-18 31,-36 41,-55 10,-19 17,-41 21,-64 4,-24 7,-51 8,-81 1,-31 1,-66 1,-106zm-81 0c0,40 0,73 -1,101 -1,27 -4,50 -7,69 -4,19 -9,36 -16,50 -7,14 -17,26 -29,38 -16,17 -36,31 -59,40 -22,9 -46,14 -71,14 -25,0 -49,-5 -72,-14 -22,-9 -42,-23 -59,-40 -12,-12 -21,-24 -28,-38 -7,-14 -13,-31 -16,-50 -4,-19 -6,-42 -7,-69 -1,-28 -2,-61 -2,-100 0,-40 1,-73 2,-101 1,-27 3,-50 7,-69 3,-19 9,-36 16,-50 7,-13 16,-26 28,-38 17,-17 37,-31 59,-40 23,-9 47,-14 72,-14 25,0 49,5 71,14 23,9 42,23 59,40 12,12 22,25 29,38 7,14 12,31 16,50 3,19 6,42 7,69 1,28 1,61 1,100zm845 378l0 -755 -81 0 0 603 -401 -603 -76 0 0 755 80 0 0 -606 401 606 77 0z"/>
 </g>
</svg>
