<?xml version="1.0" encoding="UTF-8"?>
<!DOCTYPE svg PUBLIC "-//W3C//DTD SVG 1.1//EN" "http://www.w3.org/Graphics/SVG/1.1/DTD/svg11.dtd">
<!-- Creator: CorelDRAW X7 -->
<svg xmlns="http://www.w3.org/2000/svg" xml:space="preserve" width="137.16mm" height="42.3332mm" version="1.1" style="shape-rendering:geometricPrecision; text-rendering:geometricPrecision; image-rendering:optimizeQuality; fill-rule:evenodd; clip-rule:evenodd"
viewBox="0 0 13716 4233"
 xmlns:xlink="http://www.w3.org/1999/xlink">
 <defs>
  <style type="text/css">
   <![CDATA[
    .str0 {stroke:black;stroke-width:100}
    .fil2 {fill:#2B2A29}
    .fil1 {fill:#D61F40}
    .fil0 {fill:#FEFEFE}
   ]]>
  </style>
 </defs>
 <g id="Layer_x0020_1">
  <metadata id="CorelCorpID_0Corel-Layer"/>
  <polygon class="fil0 str0" points="6636,155 13066,155 13091,156 13114,158 13137,161 13159,164 13181,170 13203,175 13224,182 13245,190 13265,198 13284,208 13303,219 13322,230 13340,242 13357,255 13374,269 13390,283 13405,299 13420,314 13433,331 13446,348 13457,365 13469,384 13478,402 13488,421 13496,441 13502,461 13508,481 13513,502 13517,523 13520,544 13522,566 13522,590 13505,2484 13504,2508 13502,2531 13500,2552 13495,2574 13490,2595 13484,2615 13477,2636 13469,2655 13459,2675 13449,2693 13438,2712 13426,2729 13414,2747 13400,2763 13385,2779 13370,2794 13354,2809 13338,2822 13321,2835 13303,2848 13285,2859 13265,2869 13247,2879 13226,2887 13206,2895 13185,2902 13164,2908 13142,2913 13120,2916 13097,2919 13074,2921 13049,2922 6617,2922 6628,2912 6649,2891 6668,2869 6687,2846 6705,2823 6721,2798 6736,2773 6750,2747 6763,2720 6774,2693 6784,2665 6793,2637 6800,2608 6806,2578 6810,2549 6812,2518 6814,2488 6830,590 6830,559 6827,528 6824,499 6818,469 6812,440 6803,412 6793,384 6782,357 6769,330 6755,304 6740,279 6724,254 6706,231 6688,208 6668,186 6647,166 "/>
  <polygon class="fil1 str0" points="657,155 6670,155 6695,156 6717,158 6740,161 6761,164 6783,170 6804,175 6824,182 6845,190 6864,198 6884,208 6903,219 6921,230 6938,242 6955,255 6971,269 6987,283 7001,299 7016,314 7029,331 7041,348 7053,365 7064,384 7073,402 7082,421 7090,441 7097,461 7103,481 7108,502 7112,523 7115,544 7116,566 7117,590 7100,2484 7099,2508 7097,2531 7094,2552 7090,2574 7085,2595 7079,2615 7071,2636 7064,2655 7055,2675 7045,2693 7034,2712 7022,2729 7010,2747 6997,2763 6983,2779 6968,2794 6952,2809 6936,2822 6919,2835 6902,2848 6884,2859 6865,2869 6847,2879 6827,2887 6807,2895 6787,2902 6766,2908 6744,2913 6723,2916 6701,2919 6678,2921 6653,2922 640,2922 616,2921 593,2919 571,2916 550,2913 528,2908 507,2902 486,2895 466,2887 446,2879 427,2869 408,2858 390,2847 373,2835 356,2822 339,2808 323,2794 309,2778 295,2763 282,2746 269,2729 258,2712 247,2693 237,2675 228,2656 221,2636 213,2616 208,2596 203,2575 199,2554 196,2533 195,2511 194,2487 210,593 212,569 214,546 216,525 221,503 226,483 232,462 239,441 247,422 256,402 266,384 276,365 288,348 301,330 314,314 328,298 343,283 358,268 375,255 391,242 408,229 426,219 445,208 464,198 484,190 504,182 524,175 545,169 566,164 588,161 610,158 632,156 "/>
  <path class="fil0" d="M2434 1357c0,149 -71,255 -213,320 -110,48 -243,72 -399,72l-903 0 0 431c0,46 -19,75 -56,87 -11,5 -48,8 -113,8 -60,0 -91,-32 -91,-95l0 -1285c0,-63 31,-94 92,-94l1083 0c147,0 272,21 375,62 150,59 225,147 225,266l0 228zm-258 -8l0 -201c0,-85 -113,-128 -340,-128l-917 0 0 508 919 0c226,0 338,-59 338,-179zm2377 2c0,134 -68,231 -204,293 -108,45 -232,67 -372,67l-429 0 869 381c46,21 69,52 69,93 0,61 -51,91 -153,91 -41,0 -73,-3 -96,-9l-1187 -525 0 438c0,63 -30,95 -92,95 -64,0 -102,-3 -112,-8 -38,-12 -56,-41 -56,-87l0 -1285c0,-63 30,-94 91,-94l1047 0c163,0 296,21 401,65 149,62 224,165 224,308l0 177zm-260 3l0 -186c0,-99 -122,-148 -365,-148l-878 0 0 472 924 0c213,0 319,-46 319,-138zm2324 525c0,265 -221,396 -662,396l-405 0c-179,0 -320,-23 -424,-70 -157,-66 -236,-174 -236,-325l0 -680c0,-267 220,-399 660,-399l405 0c205,0 351,18 435,56 151,60 227,175 227,343l0 679zm-261 -6l0 -667c0,-124 -132,-186 -395,-186l-413 0c-266,0 -398,62 -398,186l0 667c0,121 132,180 398,180l414 0c263,0 394,-59 394,-180z"/>
  <path class="fil1" d="M9315 2118c0,112 -47,168 -142,168 -43,0 -91,-24 -146,-71l-1198 -1067 0 1033c0,47 -19,78 -56,89 -10,2 -25,3 -44,5 -18,1 -40,1 -67,1 -60,0 -90,-31 -90,-95l0 -1230c0,-107 44,-160 132,-160 56,0 112,25 171,77l1182 1055 0 -1027c0,-47 19,-76 56,-88 11,-2 25,-3 44,-4 18,-2 40,-2 66,-2 61,0 92,31 92,94l0 1222zm1959 -579c0,78 -32,117 -96,117l-1235 0 0 243c0,103 110,156 329,156l906 0c60,0 90,31 90,95 0,84 -30,126 -90,126l-917 0c-134,0 -257,-25 -369,-75 -137,-65 -206,-163 -206,-293l0 -731c0,-71 23,-134 69,-191 98,-123 274,-184 528,-184l250 0c59,0 89,41 89,123 0,64 -30,96 -89,96l-37 0 -23 0 -13 0c-8,0 -13,-1 -13,-1 -20,-1 -37,-2 -50,-2 -14,0 -26,-1 -35,-1 -281,0 -421,53 -421,160l0 258 1238 0c63,0 95,34 95,104zm1864 -614c0,64 -29,96 -90,96l-569 0 0 1160c0,64 -30,95 -88,95 -61,0 -98,-3 -113,-7 -36,-11 -54,-41 -54,-88l0 -1160 -565 0c-61,0 -91,-32 -91,-96 0,-43 5,-73 14,-89 12,-23 38,-34 77,-34l1389 0c61,0 90,41 90,123z"/>
  <path class="fil2" d="M556 3813c0,-24 -4,-44 -11,-62 -7,-19 -18,-34 -32,-47 -15,-13 -31,-23 -50,-31 -19,-6 -41,-10 -63,-10l-190 0 0 508 54 0 0 -209 136 0c22,0 44,-3 63,-10 19,-7 35,-17 50,-30 14,-14 25,-29 32,-47 7,-19 11,-39 11,-62zm-54 0c0,22 -5,41 -14,56 -9,14 -21,26 -37,33 -16,8 -35,12 -57,12l-130 0 0 -202 130 0c22,0 41,4 57,11 16,8 28,18 37,34 9,15 14,33 14,56zm524 358l-120 -230c21,-4 41,-13 58,-25 16,-12 29,-27 38,-46 9,-19 14,-40 14,-65 0,-23 -4,-42 -11,-60 -7,-17 -17,-32 -31,-44 -13,-12 -29,-22 -47,-28 -19,-6 -40,-10 -62,-10l-194 0 0 508 54 0 0 -225 122 0 116 225 63 0zm-64 -366c0,21 -5,38 -13,52 -9,14 -20,24 -36,31 -15,7 -33,10 -52,10l-136 0 0 -186 136 0c19,0 37,3 52,11 16,6 27,16 36,31 8,14 13,30 13,51zm524 112c0,-26 0,-50 -1,-71 -1,-20 -2,-38 -5,-54 -3,-16 -8,-30 -14,-43 -7,-13 -16,-25 -28,-37 -17,-18 -36,-30 -59,-39 -22,-10 -45,-14 -71,-14 -25,0 -49,4 -71,14 -22,9 -41,21 -59,39 -11,12 -21,24 -27,37 -7,13 -12,27 -14,43 -3,16 -5,34 -6,54 -1,21 -1,45 -1,72 0,26 0,50 1,70 1,21 3,39 6,55 2,15 7,30 14,43 6,13 16,26 27,37 18,18 37,30 59,39 22,9 46,14 71,14 26,0 49,-5 71,-14 23,-9 42,-21 59,-39 12,-12 21,-24 28,-37 6,-13 11,-28 14,-43 3,-16 4,-34 5,-55 1,-20 1,-44 1,-71zm-54 0c0,27 -1,49 -1,68 -1,18 -3,34 -5,46 -3,13 -6,25 -11,34 -5,10 -11,18 -19,26 -11,11 -25,21 -39,27 -16,6 -32,9 -49,9 -17,0 -33,-3 -48,-9 -15,-6 -29,-16 -39,-27 -8,-8 -15,-16 -20,-26 -5,-9 -8,-21 -11,-34 -2,-12 -4,-28 -4,-46 -1,-19 -2,-41 -1,-67 -1,-27 0,-49 1,-68 0,-18 2,-34 4,-47 3,-12 6,-24 11,-33 5,-9 12,-18 20,-26 10,-11 24,-21 39,-27 15,-6 31,-9 48,-9 17,0 33,3 49,9 14,6 28,16 39,27 8,8 14,17 19,26 5,9 8,21 11,33 2,13 4,29 5,47 0,19 1,41 1,67zm508 -205l0 -49 -316 0 0 508 55 0 0 -224 223 0 0 -48 -223 0 0 -187 261 0zm425 459l0 -48 -261 0 0 -184 222 0 0 -48 -222 0 0 -179 261 0 0 -49 -316 0 0 508 316 0zm430 -140c0,-20 -4,-40 -12,-57 -6,-17 -17,-31 -31,-43 -7,-6 -15,-11 -23,-16 -8,-5 -18,-8 -29,-11 -11,-4 -25,-6 -41,-8l-56 -9c-9,-2 -17,-4 -25,-6 -9,-3 -17,-6 -24,-10 -7,-4 -14,-8 -19,-12 -8,-7 -13,-15 -17,-25 -4,-10 -6,-21 -6,-33 0,-20 4,-36 13,-50 8,-14 20,-25 36,-33 16,-8 35,-12 58,-12 18,0 34,2 48,5 13,3 26,8 38,15 11,6 22,14 33,23l35 -35c-15,-12 -29,-23 -45,-31 -15,-8 -31,-14 -48,-18 -18,-4 -37,-6 -59,-6 -33,0 -62,6 -87,18 -24,12 -43,29 -55,50 -14,21 -21,47 -21,76 0,20 4,38 10,54 7,16 16,29 29,41 11,9 25,17 40,24 16,6 34,11 53,14l60 9c12,2 22,4 30,6 8,2 15,4 20,7 5,3 11,7 16,12 8,7 14,16 18,26 4,11 6,24 6,37 0,20 -4,37 -14,51 -10,14 -23,25 -41,32 -18,8 -40,11 -64,11 -19,0 -37,-1 -52,-5 -16,-3 -31,-9 -45,-17 -14,-8 -28,-20 -42,-33l-37 37c15,16 32,29 50,38 17,10 35,18 56,22 20,5 43,7 68,7 26,0 51,-3 72,-10 22,-7 40,-16 55,-29 16,-12 28,-27 36,-45 8,-18 12,-38 13,-61zm419 0c0,-20 -4,-40 -11,-57 -8,-17 -18,-31 -32,-43 -7,-6 -15,-11 -23,-16 -8,-5 -18,-8 -29,-11 -11,-4 -25,-6 -41,-8l-56 -9c-8,-2 -17,-4 -26,-6 -8,-3 -16,-6 -23,-10 -7,-4 -14,-8 -19,-12 -8,-7 -14,-15 -17,-25 -4,-10 -6,-21 -6,-33 1,-20 5,-36 13,-50 8,-14 21,-25 36,-33 16,-8 36,-12 59,-12 17,0 33,2 47,5 14,3 27,8 38,15 11,6 22,14 33,23l35 -35c-15,-12 -30,-23 -44,-31 -15,-8 -32,-14 -49,-18 -17,-4 -37,-6 -58,-6 -34,0 -64,6 -88,18 -24,12 -42,29 -56,50 -13,21 -19,47 -19,76 0,20 3,38 9,54 7,16 16,29 29,41 11,9 24,17 40,24 16,6 33,11 54,14l59 9c12,2 22,4 30,6 8,2 14,4 20,7 6,3 11,7 16,12 9,7 15,16 19,26 4,11 6,24 6,37 0,20 -6,37 -15,51 -10,14 -24,25 -41,32 -18,8 -39,11 -64,11 -20,0 -36,-1 -53,-5 -15,-3 -30,-9 -44,-17 -14,-8 -28,-20 -42,-33l-37 37c16,16 33,29 49,38 18,10 36,18 57,22 20,5 43,7 69,7 26,0 50,-3 71,-10 21,-7 40,-16 56,-29 15,-12 27,-27 35,-45 9,-18 13,-38 13,-61zm179 140l0 -508 -55 0 0 508 55 0zm494 -254c0,-26 0,-50 -1,-71 -1,-20 -3,-38 -5,-54 -3,-16 -8,-30 -15,-43 -6,-13 -16,-25 -27,-37 -18,-18 -37,-30 -59,-39 -22,-10 -46,-14 -71,-14 -26,0 -49,4 -71,14 -23,9 -42,21 -59,39 -12,12 -22,24 -28,37 -6,13 -11,27 -14,43 -3,16 -4,34 -5,54 -1,21 -1,45 -1,72 0,26 0,50 1,70 1,21 2,39 5,55 3,15 8,30 14,43 6,13 16,26 28,37 17,18 36,30 59,39 22,9 45,14 71,14 25,0 49,-5 71,-14 22,-9 41,-21 59,-39 11,-12 21,-24 27,-37 7,-13 12,-28 15,-43 2,-16 4,-34 5,-55 1,-20 1,-44 1,-71zm-55 0c0,27 0,49 -1,68 -1,18 -2,34 -4,46 -3,13 -6,25 -11,34 -5,10 -12,18 -20,26 -11,11 -24,21 -39,27 -15,6 -31,9 -48,9 -17,0 -33,-3 -49,-9 -14,-6 -28,-16 -39,-27 -8,-8 -14,-16 -19,-26 -5,-9 -9,-21 -11,-34 -3,-12 -4,-28 -5,-46 -1,-19 -1,-41 -1,-67 0,-27 0,-49 1,-68 1,-18 2,-34 5,-47 2,-12 6,-24 11,-33 5,-9 11,-18 19,-26 11,-11 25,-21 39,-27 16,-6 32,-9 49,-9 17,0 33,3 48,9 15,6 28,16 39,27 8,8 15,17 20,26 5,9 8,21 11,33 2,13 3,29 4,47 1,19 1,41 1,67zm569 254l0 -508 -55 0 0 406 -270 -406 -51 0 0 508 54 0 0 -407 270 407 52 0zm511 0l-186 -508 -46 0 -186 508 57 0 41 -115 222 0 40 115 58 0zm-113 -162l-191 0 96 -268 95 268zm520 162l0 -48 -259 0 0 -460 -55 0 0 508 314 0zm633 -140c-1,-20 -4,-39 -11,-54 -7,-16 -16,-30 -29,-41 -12,-11 -26,-20 -43,-26 15,-5 27,-13 39,-24 11,-10 20,-23 26,-38 7,-15 10,-31 10,-49 0,-21 -3,-40 -11,-57 -7,-17 -17,-31 -31,-43 -13,-11 -29,-20 -47,-26 -19,-7 -39,-10 -61,-10l-191 0 0 508 198 0c22,0 43,-2 61,-8 19,-6 35,-15 48,-27 13,-12 24,-26 31,-44 7,-17 10,-38 11,-61zm-54 -2c0,20 -4,36 -12,50 -9,14 -21,25 -36,33 -15,7 -33,11 -55,11l-138 0 0 -186 138 0c22,0 40,4 55,11 15,7 27,18 36,32 8,14 12,31 12,49zm-8 -229c0,20 -4,36 -13,50 -9,13 -21,23 -36,29 -15,6 -32,9 -51,9l-133 0 0 -176 133 0c19,0 36,2 51,9 15,6 27,16 36,29 9,13 13,29 13,50zm548 204l0 -341 -54 0 0 336c0,26 -6,49 -15,68 -11,19 -25,34 -43,45 -19,10 -41,15 -66,15 -24,0 -46,-5 -64,-15 -19,-11 -33,-26 -43,-45 -10,-19 -15,-42 -15,-68l0 -336 -55 0 0 341c0,25 5,48 14,69 8,21 21,39 36,55 16,15 35,27 56,35 22,8 46,13 71,13 26,0 50,-5 72,-13 21,-8 40,-20 56,-35 16,-16 28,-33 37,-55 8,-21 13,-44 13,-69zm457 27c0,-20 -4,-40 -11,-57 -7,-17 -18,-31 -32,-43 -7,-6 -14,-11 -23,-16 -8,-5 -18,-8 -29,-11 -11,-4 -25,-6 -41,-8l-55 -9c-9,-2 -18,-4 -26,-6 -9,-3 -16,-6 -24,-10 -7,-4 -13,-8 -19,-12 -8,-7 -13,-15 -17,-25 -4,-10 -6,-21 -6,-33 0,-20 4,-36 13,-50 8,-14 20,-25 37,-33 16,-8 35,-12 57,-12 18,0 34,2 48,5 14,3 26,8 39,15 11,6 22,14 32,23l35 -35c-14,-12 -29,-23 -44,-31 -15,-8 -31,-14 -49,-18 -17,-4 -37,-6 -59,-6 -33,0 -62,6 -86,18 -25,12 -43,29 -56,50 -14,21 -20,47 -20,76 0,20 3,38 10,54 6,16 16,29 29,41 10,9 24,17 39,24 16,6 34,11 54,14l59 9c13,2 23,4 30,6 8,2 15,4 20,7 6,3 12,7 16,12 9,7 15,16 19,26 4,11 6,24 6,37 0,20 -5,37 -15,51 -9,14 -23,25 -41,32 -18,8 -39,11 -64,11 -19,0 -37,-1 -52,-5 -16,-3 -30,-9 -44,-17 -15,-8 -29,-20 -43,-33l-37 37c16,16 32,29 50,38 17,10 36,18 56,22 20,5 43,7 68,7 27,0 51,-3 72,-10 22,-7 40,-16 56,-29 15,-12 27,-27 35,-45 9,-18 13,-38 13,-61zm178 140l0 -508 -53 0 0 508 53 0zm534 0l0 -508 -54 0 0 406 -270 -406 -51 0 0 508 53 0 0 -407 270 407 52 0zm473 0l0 -48 -261 0 0 -184 223 0 0 -48 -223 0 0 -179 261 0 0 -49 -315 0 0 508 315 0zm430 -140c0,-20 -4,-40 -11,-57 -7,-17 -18,-31 -32,-43 -6,-6 -14,-11 -23,-16 -8,-5 -18,-8 -29,-11 -11,-4 -24,-6 -41,-8l-55 -9c-9,-2 -18,-4 -26,-6 -9,-3 -17,-6 -24,-10 -7,-4 -13,-8 -18,-12 -8,-7 -15,-15 -18,-25 -4,-10 -5,-21 -5,-33 0,-20 4,-36 13,-50 8,-14 20,-25 36,-33 15,-8 35,-12 58,-12 17,0 33,2 47,5 14,3 27,8 38,15 12,6 22,14 33,23l35 -35c-15,-12 -29,-23 -44,-31 -15,-8 -31,-14 -49,-18 -17,-4 -37,-6 -58,-6 -34,0 -63,6 -87,18 -24,12 -43,29 -56,50 -13,21 -20,47 -20,76 0,20 3,38 9,54 7,16 16,29 29,41 12,9 25,17 41,24 15,6 33,11 53,14l59 9c13,2 22,4 30,6 8,2 15,4 21,7 5,3 10,7 16,12 8,7 14,16 18,26 4,11 6,24 6,37 0,20 -5,37 -15,51 -9,14 -23,25 -41,32 -17,8 -39,11 -64,11 -19,0 -36,-1 -52,-5 -16,-3 -31,-9 -45,-17 -14,-8 -27,-20 -42,-33l-37 37c16,16 33,29 50,38 17,10 36,18 56,22 20,5 43,7 69,7 26,0 50,-3 72,-10 21,-7 39,-16 55,-29 15,-12 28,-27 36,-45 8,-18 12,-38 12,-61zm419 0c0,-20 -3,-40 -11,-57 -7,-17 -18,-31 -31,-43 -8,-6 -15,-11 -23,-16 -9,-5 -18,-8 -30,-11 -11,-4 -25,-6 -40,-8l-56 -9c-9,-2 -18,-4 -26,-6 -8,-3 -17,-6 -24,-10 -7,-4 -13,-8 -19,-12 -7,-7 -13,-15 -17,-25 -4,-10 -6,-21 -6,-33 0,-20 5,-36 13,-50 9,-14 21,-25 36,-33 17,-8 36,-12 58,-12 19,0 34,2 48,5 14,3 27,8 39,15 11,6 22,14 32,23l36 -35c-15,-12 -30,-23 -45,-31 -15,-8 -32,-14 -49,-18 -17,-4 -36,-6 -58,-6 -34,0 -63,6 -87,18 -25,12 -43,29 -56,50 -13,21 -20,47 -20,76 0,20 4,38 10,54 6,16 16,29 29,41 11,9 24,17 40,24 15,6 33,11 53,14l59 9c12,2 23,4 31,6 7,2 14,4 19,7 6,3 12,7 17,12 8,7 14,16 18,26 4,11 6,24 6,37 0,20 -5,37 -15,51 -9,14 -23,25 -41,32 -18,8 -39,11 -64,11 -19,0 -36,-1 -52,-5 -16,-3 -30,-9 -45,-17 -14,-8 -28,-20 -41,-33l-37 37c15,16 32,29 49,38 17,10 36,18 56,22 21,5 43,7 68,7 27,0 52,-3 72,-10 22,-7 41,-16 56,-29 16,-12 27,-27 36,-45 8,-18 12,-38 12,-61zm637 -6l-54 0c-5,21 -13,39 -24,54 -10,15 -25,27 -41,35 -17,9 -36,13 -57,13 -17,0 -34,-3 -48,-9 -16,-6 -29,-15 -40,-27 -8,-8 -14,-16 -19,-25 -5,-10 -9,-21 -11,-34 -2,-13 -4,-29 -4,-47 -2,-19 -2,-41 -2,-67 0,-27 0,-49 2,-68 0,-18 2,-35 4,-47 2,-13 6,-25 11,-34 5,-9 11,-17 19,-26 11,-11 24,-20 40,-26 14,-7 31,-9 48,-9 21,0 40,4 56,13 17,8 30,20 41,35 11,16 19,33 24,54l55 0c-6,-32 -17,-59 -33,-81 -16,-23 -37,-40 -61,-52 -24,-12 -52,-18 -82,-18 -25,0 -49,4 -71,14 -22,9 -42,21 -59,39 -12,12 -21,24 -27,37 -7,13 -12,27 -15,43 -3,16 -4,34 -5,54 -1,21 -1,45 -1,72 0,26 0,50 1,70 1,21 2,39 5,55 3,15 8,30 15,43 6,13 15,26 27,37 17,18 37,30 59,39 22,9 46,14 71,14 30,0 57,-6 82,-18 24,-12 45,-30 61,-52 17,-22 27,-50 33,-81zm467 -108c0,-26 0,-50 -1,-71 -1,-20 -2,-38 -5,-54 -3,-16 -8,-30 -14,-43 -7,-13 -16,-25 -28,-37 -17,-18 -36,-30 -59,-39 -22,-10 -45,-14 -71,-14 -25,0 -49,4 -71,14 -22,9 -41,21 -59,39 -11,12 -21,24 -27,37 -7,13 -12,27 -14,43 -3,16 -5,34 -6,54 -1,21 -1,45 -1,72 0,26 0,50 1,70 1,21 3,39 6,55 2,15 7,30 14,43 6,13 16,26 27,37 18,18 37,30 59,39 22,9 46,14 71,14 26,0 49,-5 71,-14 23,-9 42,-21 59,-39 12,-12 21,-24 28,-37 6,-13 11,-28 14,-43 3,-16 4,-34 5,-55 1,-20 1,-44 1,-71zm-54 0c0,27 -1,49 -1,68 -1,18 -2,34 -5,46 -3,13 -6,25 -11,34 -5,10 -11,18 -19,26 -11,11 -25,21 -39,27 -16,6 -32,9 -49,9 -17,0 -33,-3 -48,-9 -15,-6 -28,-16 -39,-27 -8,-8 -15,-16 -20,-26 -5,-9 -8,-21 -11,-34 -2,-12 -4,-28 -4,-46 -1,-19 -1,-41 -1,-67 0,-27 0,-49 1,-68 0,-18 2,-34 4,-47 3,-12 6,-24 11,-33 5,-9 12,-18 20,-26 11,-11 24,-21 39,-27 15,-6 31,-9 48,-9 17,0 33,3 49,9 14,6 28,16 39,27 8,8 14,17 19,26 5,9 8,21 11,33 3,13 4,29 5,47 0,19 1,41 1,67zm568 254l0 -508 -54 0 0 406 -270 -406 -52 0 0 508 55 0 0 -407 270 407 51 0zm534 0l0 -508 -55 0 0 406 -270 -406 -51 0 0 508 54 0 0 -407 270 407 52 0zm473 0l0 -48 -261 0 0 -184 223 0 0 -48 -223 0 0 -179 261 0 0 -49 -316 0 0 508 316 0z"/>
  <path class="fil2" d="M12012 4025l-54 0c-5,21 -12,39 -24,54 -11,15 -25,27 -42,35 -16,9 -35,13 -56,13 -17,0 -33,-3 -49,-9 -14,-6 -28,-15 -39,-27 -8,-8 -14,-16 -19,-25 -5,-10 -8,-21 -11,-34 -2,-13 -4,-29 -5,-47 0,-19 -1,-41 -1,-67 0,-27 1,-49 1,-68 1,-18 3,-35 5,-47 3,-13 6,-25 11,-34 5,-9 11,-17 19,-26 11,-11 25,-20 39,-26 16,-7 32,-9 49,-9 21,0 40,4 56,13 17,8 31,20 42,35 10,16 18,33 22,54l56 0c-6,-32 -17,-59 -33,-81 -16,-23 -36,-40 -60,-52 -25,-12 -53,-18 -83,-18 -25,0 -49,4 -71,14 -22,9 -42,21 -59,39 -12,12 -21,24 -28,37 -6,13 -11,27 -14,43 -3,16 -4,34 -5,54 -1,21 -1,45 -1,72 0,26 0,50 1,70 1,21 2,39 5,55 3,15 8,30 14,43 7,13 16,26 28,37 17,18 37,30 59,39 22,9 46,14 71,14 30,0 58,-6 82,-18 25,-12 45,-30 61,-52 16,-22 27,-50 33,-81zm413 -313l0 -49 -349 0 0 49 148 0 0 459 54 0 0 -459 147 0zm160 459l0 -508 -54 0 0 508 54 0zm494 -254c0,-26 0,-50 -1,-71 0,-20 -2,-38 -5,-54 -3,-16 -7,-30 -14,-43 -7,-13 -16,-25 -28,-37 -17,-18 -37,-30 -59,-39 -22,-10 -45,-14 -71,-14 -25,0 -49,4 -71,14 -22,9 -42,21 -59,39 -12,12 -21,24 -27,37 -7,13 -12,27 -15,43 -3,16 -4,34 -5,54 0,21 -1,45 0,72 -1,26 0,50 0,70 1,21 2,39 5,55 3,15 8,30 15,43 6,13 15,26 27,37 17,18 37,30 59,39 22,9 46,14 71,14 26,0 49,-5 71,-14 22,-9 42,-21 59,-39 12,-12 21,-24 28,-37 7,-13 11,-28 14,-43 3,-16 5,-34 5,-55 1,-20 1,-44 1,-71zm-54 0c0,27 0,49 -1,68 -1,18 -3,34 -5,46 -3,13 -6,25 -11,34 -4,10 -11,18 -19,26 -11,11 -24,21 -40,27 -15,6 -31,9 -48,9 -16,0 -33,-3 -48,-9 -15,-6 -28,-16 -40,-27 -8,-8 -14,-16 -19,-26 -4,-9 -8,-21 -10,-34 -3,-12 -4,-28 -5,-46 -1,-19 -1,-41 -1,-67 0,-27 0,-49 1,-68 1,-18 2,-34 5,-47 2,-12 6,-24 10,-33 5,-9 11,-18 19,-26 12,-11 25,-21 40,-27 15,-6 32,-9 48,-9 17,0 33,3 48,9 16,6 28,16 40,27 8,8 15,17 19,26 5,9 8,21 11,33 2,13 4,29 5,47 1,19 1,41 1,67zm568 254l0 -508 -54 0 0 406 -270 -406 -51 0 0 508 54 0 0 -407 269 407 52 0z"/>
 </g>
</svg>
